<svg width="40" height="41" viewBox="0 0 40 41" xmlns="http://www.w3.org/2000/svg" xmlns:xlink="http://www.w3.org/1999/xlink"><defs><linearGradient x1="50%" y1="95.75%" x2="78.198%" y2="-8.824%" id="a"><stop stop-color="#30E8C4" offset="0%"/><stop stop-color="#32E77A" offset="100%"/></linearGradient><path id="b" d="M.559 5.662l8.189 7.61-8.19 8.678 9.382 3.509 10.619-10.59-10-14.41z"/></defs><g transform="translate(0 .5)" fill="none" fill-rule="evenodd"><circle fill="url(#a)" fill-rule="nonzero" cx="20" cy="20" r="20"/><g transform="translate(14 7)"><mask id="c" fill="#fff"><use xlink:href="#b"/></mask><path d="M9.833 13.4c0 1.356-1.119 2.455-2.5 2.455-1.38 0-2.5-1.1-2.5-2.455 0-1.356 1.12-2.455 2.5-2.455 1.381 0 2.5 1.1 2.5 2.455z" stroke="#FFF" stroke-width="2" stroke-linecap="round" stroke-linejoin="round" mask="url(#c)"/><path d="M13.5 15.855a1.332 1.332 0 0 0 .275 1.489l.05.049c.313.307.489.723.489 1.157 0 .435-.176.851-.489 1.158a1.685 1.685 0 0 1-2.358 0l-.05-.049a1.394 1.394 0 0 0-1.517-.27 1.35 1.35 0 0 0-.833 1.236v.139c0 .903-.747 1.636-1.667 1.636s-1.667-.733-1.667-1.636v-.074a1.352 1.352 0 0 0-.9-1.235 1.394 1.394 0 0 0-1.516.27l-.05.049a1.685 1.685 0 0 1-2.359 0 1.621 1.621 0 0 1-.488-1.158c0-.434.175-.85.488-1.158l.05-.049c.393-.394.502-.984.275-1.489a1.376 1.376 0 0 0-1.258-.818h-.142c-.92 0-1.666-.733-1.666-1.637 0-.903.746-1.636 1.666-1.636h.075a1.373 1.373 0 0 0 1.259-.884 1.332 1.332 0 0 0-.275-1.489l-.05-.049a1.621 1.621 0 0 1-.49-1.157c0-.435.177-.851.49-1.158a1.685 1.685 0 0 1 2.358 0l.05.049a1.394 1.394 0 0 0 1.517.27h.066a1.35 1.35 0 0 0 .834-1.236v-.139c0-.903.746-1.636 1.666-1.636C8.253 4.4 9 5.133 9 6.036v.074a1.35 1.35 0 0 0 .833 1.235 1.394 1.394 0 0 0 1.517-.27l.05-.049a1.685 1.685 0 0 1 2.358 0c.313.307.49.724.49 1.158 0 .434-.177.85-.49 1.158l-.05.049a1.332 1.332 0 0 0-.275 1.489v.065c.216.495.71.816 1.259.819h.141c.92 0 1.667.732 1.667 1.636 0 .904-.746 1.636-1.667 1.636h-.075a1.376 1.376 0 0 0-1.258.819z" stroke="#FFF" stroke-width="2" stroke-linecap="round" stroke-linejoin="round" mask="url(#c)"/></g><path d="M5.656 20.728h12.478m-3.478-5l5 4.5-5 4.5" stroke="#FFF" stroke-linecap="round" stroke-linejoin="round" stroke-width="2"/></g></svg>